<svg xmlns="http://www.w3.org/2000/svg" xmlns:xlink="http://www.w3.org/1999/xlink" version="1.1" x="0px" y="0px" viewBox="10.969 24.13 490.801 580.54875" style="enable-background:new 10.969 24.13 490.801 464.439;" xml:space="preserve"><g><path d="M237.97,60.37c0.776,0.024,1.527-0.105,2.229-0.363c1.086,0.933,2.477,1.463,3.921,1.463c1.49,0,2.92-0.55,4.03-1.56   c1.25-1.13,1.97-2.75,1.97-4.44c0-1.49-0.56-2.93-1.56-4.04h-0.01l-0.06-0.07c-4.86-5.27-11.5-9.54-19.73-12.67   c8.42-1.7,16.57-2.56,24.22-2.56c19.15,0.02,35.66,5.3,49.08,15.68c1.061,0.82,2.33,1.26,3.67,1.26c1.87,0,3.601-0.85,4.75-2.32   c0.98-1.27,1.41-2.84,1.21-4.43c-0.199-1.59-1-3.01-2.27-3.99c-6.91-5.39-14.73-9.66-23.23-12.71   c-10.18-3.64-21.31-5.49-33.09-5.49h-0.12c-15.56,0-32.59,3.18-50.62,9.45c-2.68,0.94-4.36,3.66-3.97,6.48   c0.38,2.81,2.72,4.99,5.56,5.18c0,0,0.04,0,0.2,0.01c0.73,0.06,7.32,0.62,15.03,2.87c0.413,0.119,0.861,0.255,1.325,0.399   c-21.489,1.015-42.561,5.12-62.775,12.262c-22.74,8.03-43.9,19.71-62.89,34.7c-1.26,0.99-2.06,2.41-2.24,4   c-0.19,1.6,0.25,3.17,1.24,4.42c1.15,1.45,2.87,2.29,4.72,2.29c1.36,0,2.64-0.45,3.71-1.29c37.02-29.2,81.57-44.64,128.82-44.64   C233.34,60.26,235.63,60.31,237.97,60.37z"/><path d="M96.9,427.55c-37.57-31.72-62.78-75.72-70.99-123.9c-0.5-2.89-2.98-4.989-5.91-4.989c-0.34,0-0.68,0.029-1.02,0.09   c-2.9,0.49-5,2.99-4.99,5.93c0,0.33,0.03,0.66,0.09,0.99c4.38,25.72,13.24,50.229,26.32,72.84c12.79,22.11,29.2,41.69,48.76,58.21   c1.08,0.91,2.46,1.41,3.87,1.41c1.77,0,3.44-0.771,4.59-2.13C99.75,433.47,99.43,429.68,96.9,427.55z"/><path d="M18.01,290.81c1.6-0.12,3.05-0.859,4.1-2.08c1.04-1.21,1.55-2.76,1.43-4.359c-0.25-3.261-3.16-5.78-6.44-5.53   c-1.6,0.12-3.05,0.86-4.1,2.07c-1.04,1.22-1.55,2.77-1.43,4.37c0.24,3.109,2.86,5.539,5.98,5.539   C17.7,290.819,17.86,290.819,18.01,290.81z"/><path d="M16.87,270.85c0.03,0,0.07,0,0.1,0c3.25,0,5.94-2.649,5.99-5.899c0.81-49.01,18.99-96.351,51.19-133.28   c0.95-1.09,1.47-2.48,1.48-3.92c0.01-1.75-0.74-3.4-2.06-4.55c-1.09-0.95-2.49-1.48-3.94-1.48c-1.73,0-3.38,0.75-4.52,2.06   C48.39,142.95,35.23,164.63,26,188.23c-9.55,24.39-14.6,50.14-15.03,76.52c-0.03,1.6,0.57,3.12,1.68,4.27   C13.77,270.17,15.26,270.819,16.87,270.85z"/><path d="M440.899,231.28c0.4,0,0.811-0.04,1.21-0.12c1.57-0.32,2.921-1.24,3.801-2.57c0.89-1.34,1.199-2.94,0.87-4.51   c-0.57-2.78-3.04-4.8-5.87-4.8c-0.4,0-0.811,0.04-1.21,0.12c-1.57,0.32-2.92,1.24-3.801,2.57c-0.88,1.34-1.189,2.93-0.869,4.5v0.01   C435.6,229.26,438.069,231.28,440.899,231.28z"/><path d="M83.45,119.28c1.55,0,3.02-0.58,4.14-1.65c2.39-2.28,2.49-6.09,0.21-8.48c-1.15-1.2-2.69-1.87-4.35-1.87   c-1.54,0-3.01,0.59-4.13,1.65c0,0,0,0.01-0.01,0.01c-2.39,2.28-2.48,6.08-0.2,8.48C80.25,118.62,81.79,119.28,83.45,119.28z"/><path d="M270.77,472.899c-0.37,0-0.739,0.03-1.109,0.101c-12.63,2.37-25.61,3.569-38.57,3.569c-35.89,0-71.28-9.289-102.33-26.85   c-0.9-0.51-1.92-0.78-2.95-0.78c-2.16,0-4.16,1.17-5.23,3.051c-0.5,0.89-0.77,1.899-0.77,2.92c-0.02,2.17,1.15,4.189,3.04,5.26   c16.17,9.14,33.44,16.2,51.36,20.979c18.46,4.92,37.59,7.42,56.87,7.42h0.01c13.71,0,27.43-1.27,40.78-3.77   c3.25-0.62,5.399-3.76,4.8-7.01C276.13,474.95,273.66,472.899,270.77,472.899z"/><path d="M112.33,439.39c-0.01-0.01-0.01-0.01-0.01-0.01c-1.02-0.71-2.2-1.08-3.43-1.08c-1.96,0-3.81,0.96-4.93,2.57   c-1.89,2.72-1.22,6.47,1.5,8.359c1.01,0.7,2.19,1.07,3.42,1.07c1.97,0,3.81-0.96,4.93-2.57   C115.7,445.02,115.03,441.28,112.33,439.39z"/><path d="M399.788,376.16c0.188,0.107,0.378,0.212,0.563,0.32c0.286,0.167,0.564,0.337,0.841,0.507c0.484,0.3,0.967,0.6,1.428,0.912   c0.215,0.145,0.44,0.27,0.67,0.385c0.096,0.048,0.194,0.09,0.292,0.133c0.128,0.055,0.256,0.106,0.387,0.152   c0.131,0.047,0.261,0.093,0.394,0.13c0.064,0.018,0.129,0.029,0.194,0.044c0.313,0.077,0.631,0.127,0.954,0.151   c0.07,0.005,0.14,0.013,0.21,0.016c0.08,0.003,0.158,0.018,0.239,0.018c0.087,0,0.173-0.014,0.26-0.018   c0.085-0.003,0.169-0.011,0.253-0.018c0.139-0.013,0.277-0.023,0.415-0.045c0.134-0.02,0.266-0.051,0.398-0.081   c0.094-0.021,0.19-0.033,0.283-0.057c2.737-0.756,5.613-1.307,8.578-1.662c0.237-0.028,0.473-0.057,0.711-0.081   c0.605-0.065,1.217-0.114,1.829-0.162c1.568-0.117,3.152-0.184,4.741-0.184h0.08c8.06,0,15.92,1.52,22.14,4.279   c5.45,2.391,9.601,5.82,11.12,9.181c0.98,2.09,3.12,3.45,5.431,3.45c0.89,0,1.739-0.2,2.55-0.58c2.99-1.41,4.28-4.99,2.88-7.98   c-2.99-6.24-8.75-11.3-17.12-15.04c-6.354-2.809-13.7-4.522-21.494-5.086c6.449-13.229,11.583-27.071,15.254-41.284   c4.63-17.939,6.98-36.5,6.98-55.149c0-8.011-0.431-16.09-1.29-24.021c-0.36-3.27-3.32-5.68-6.62-5.32   c-1.59,0.17-3.021,0.96-4.03,2.2c-1,1.25-1.46,2.82-1.279,4.41c0.81,7.5,1.22,15.15,1.22,22.73c0,33.569-8.21,66.979-23.749,96.629   c-2.907,0.308-5.751,0.781-8.503,1.429c-1.199-0.719-2.458-1.419-3.747-2.079c-0.03-0.01-0.061-0.03-0.101-0.05c0,0,0,0-0.01,0   c-0.066-0.034-0.135-0.057-0.202-0.088c-5.903-2.969-12.616-5.214-19.836-6.667c-0.136-0.038-0.272-0.076-0.413-0.105   c-0.146-0.03-0.291-0.046-0.437-0.063c-6.031-1.156-12.397-1.768-18.933-1.777c-0.481,0.001-0.958,0.015-1.437,0.022   c-0.081-0.003-0.161-0.012-0.242-0.012c-0.04,0-0.07,0-0.109,0c-0.361,0.007-0.718,0.024-1.078,0.034   c-0.093,0.003-0.186,0.006-0.278,0.009c-0.905,0.028-1.806,0.067-2.703,0.118c-0.07,0.004-0.139,0.008-0.209,0.012   c-0.93,0.054-1.855,0.121-2.776,0.2c-0.029,0.002-0.057,0.005-0.086,0.007c-5.2,0.45-10.249,1.277-15.071,2.49   c-6.869,1.73-13.118,4.18-18.568,7.289c-0.94-0.175-1.894-0.324-2.855-0.46c-2.357-0.336-4.777-0.557-7.244-0.658   c-1.051-0.043-2.108-0.07-3.172-0.07c-0.002,0-0.004,0-0.005,0c-0.002,0-0.004,0-0.005,0c-0.937,0.002-1.867,0.025-2.793,0.059   c-0.334,0.012-0.666,0.027-0.999,0.043c-0.741,0.037-1.479,0.084-2.212,0.141c-0.3,0.024-0.6,0.047-0.899,0.074   c-0.79,0.072-1.575,0.157-2.355,0.253c-0.314,0.039-0.626,0.079-0.939,0.122c-0.778,0.106-1.551,0.222-2.318,0.352   c-0.152,0.026-0.305,0.048-0.456,0.075c-0.867,0.153-1.724,0.327-2.575,0.511c-0.266,0.057-0.53,0.117-0.794,0.178   c-0.226,0.052-0.455,0.098-0.679,0.152c-0.55,0.132-1.093,0.275-1.633,0.42c-0.119,0.032-0.239,0.061-0.357,0.093   c-0.807,0.222-1.599,0.463-2.382,0.713c-0.294,0.094-0.586,0.19-0.877,0.287c-0.596,0.201-1.183,0.41-1.764,0.627   c-0.194,0.072-0.396,0.135-0.588,0.209c-0.05,0.021-0.1,0.04-0.149,0.061c-0.01,0-0.01,0-0.021,0.01   c-0.031,0.012-0.059,0.03-0.09,0.043c-2.278,0.894-4.436,1.913-6.45,3.057c-4.409,2.51-7.92,5.5-10.449,8.9   c-0.592,0.795-1.12,1.617-1.595,2.456c-0.017,0.029-0.039,0.055-0.055,0.084c-0.009,0.016-0.015,0.032-0.024,0.048   c-1.542,2.766-2.445,5.74-2.627,8.731c-0.849,0.123-1.688,0.263-2.52,0.413c-0.093,0.012-0.188,0.022-0.28,0.037   c-0.344,0.064-0.674,0.146-1.015,0.214c-0.505,0.101-1.006,0.207-1.505,0.318c-0.43,0.096-0.862,0.19-1.287,0.293   c-0.852,0.207-1.692,0.429-2.522,0.665c-0.33,0.094-0.652,0.195-0.978,0.294c-0.649,0.196-1.29,0.402-1.925,0.616   c-0.284,0.096-0.57,0.189-0.851,0.289c-0.861,0.306-1.707,0.629-2.539,0.969c-0.181,0.074-0.358,0.152-0.537,0.228   c-0.381,0.16-0.766,0.316-1.141,0.484c-0.27,0.122-0.519,0.255-0.784,0.38c-0.381,0.179-0.756,0.361-1.128,0.547   c-0.521,0.261-1.029,0.529-1.529,0.801c-0.348,0.19-0.695,0.38-1.035,0.577c-0.524,0.303-1.03,0.615-1.528,0.931   c-0.291,0.185-0.585,0.367-0.868,0.557c-0.495,0.331-0.968,0.673-1.436,1.017c-0.203,0.149-0.423,0.288-0.621,0.44   c-0.107,0.082-0.207,0.168-0.313,0.251c-0.127,0.099-0.25,0.2-0.375,0.301c-0.573,0.463-1.129,0.934-1.655,1.417   c-0.057,0.052-0.11,0.106-0.166,0.159c-0.531,0.494-1.036,0.999-1.518,1.513c-0.041,0.044-0.084,0.086-0.125,0.13   c-0.5,0.541-0.968,1.094-1.412,1.655c-0.056,0.071-0.112,0.142-0.167,0.213c-0.421,0.543-0.819,1.094-1.187,1.654   c-0.029,0.043-0.063,0.084-0.091,0.127c-0.029,0.045-0.049,0.095-0.077,0.14c-0.142,0.223-0.289,0.445-0.423,0.67   c-1.97,3.3-3.01,6.96-3,10.569c-0.01,4.46,1.53,8.88,4.46,12.79c0.231,0.308,0.494,0.601,0.739,0.902   c0.118,0.171,0.244,0.338,0.381,0.498c0.066,0.079,0.14,0.148,0.21,0.223c3.877,4.452,9.377,8.093,16.39,10.817   c0.961,0.37,1.942,0.717,2.939,1.042c0.014,0.005,0.026,0.013,0.041,0.018c0.953,0.31,1.919,0.594,2.894,0.862   c0.011,0.003,0.023,0.006,0.035,0.009c0.991,0.272,1.994,0.518,3.007,0.746c0.05,0.011,0.102,0.021,0.152,0.033   c0.99,0.221,1.991,0.419,3.001,0.598c0.043,0.008,0.086,0.015,0.128,0.022c1.019,0.179,2.048,0.336,3.086,0.472   c0.044,0.006,0.087,0.012,0.13,0.017c1.026,0.133,2.06,0.245,3.103,0.336c0.064,0.006,0.128,0.012,0.192,0.018   c1.012,0.086,2.032,0.153,3.059,0.199c0.09,0.004,0.18,0.011,0.271,0.015c1.096,0.045,2.199,0.074,3.311,0.074h58.42h0.5   c-7.8,4.3-15.96,8.12-24.229,11.37c-0.03,0.01-0.07,0.03-0.101,0.04c-0.01,0-0.01,0-0.01,0.01c-2.31,0.9-3.8,3.09-3.81,5.57   c0,0.75,0.14,1.489,0.42,2.199c0.91,2.311,3.1,3.811,5.59,3.811c0.75,0,1.479-0.14,2.189-0.42   c15.641-6.13,30.601-14.08,44.48-23.641c2.18-1.5,3.12-4.199,2.33-6.72c-0.78-2.52-3.09-4.22-5.73-4.22h-21.63H272.37   c-0.772,0-1.542-0.016-2.31-0.043c-0.137-0.005-0.274-0.012-0.411-0.017c-0.638-0.026-1.273-0.061-1.906-0.106   c-0.148-0.01-0.297-0.02-0.445-0.032c-0.745-0.057-1.486-0.124-2.222-0.206c-0.001,0-0.002,0-0.003,0   c-0.729-0.082-1.451-0.179-2.169-0.284c-0.206-0.031-0.41-0.065-0.615-0.097c-0.5-0.079-0.997-0.164-1.49-0.254   c-0.243-0.045-0.485-0.089-0.726-0.136c-0.551-0.108-1.097-0.224-1.638-0.347c-0.133-0.03-0.269-0.057-0.401-0.088   c-0.662-0.155-1.315-0.324-1.961-0.501c-0.173-0.047-0.343-0.098-0.514-0.146c-0.55-0.157-1.095-0.32-1.632-0.493   c-2.891-0.927-5.563-2.067-7.906-3.409c-3.05-1.74-5.5-3.78-7.07-5.9c-1.42-1.93-2.08-3.72-2.09-5.63   c0.01-1.52,0.43-2.93,1.32-4.449c0.119-0.205,0.262-0.41,0.399-0.614c0.154-0.232,0.322-0.464,0.499-0.695   c0.106-0.138,0.211-0.277,0.325-0.415c0.188-0.228,0.392-0.454,0.601-0.68c0.109-0.118,0.21-0.237,0.325-0.354   c0.338-0.346,0.695-0.69,1.079-1.028c0.004-0.003,0.008-0.006,0.012-0.01c0.396-0.348,0.816-0.691,1.256-1.028   c0.045-0.035,0.093-0.068,0.138-0.103c0.414-0.313,0.844-0.621,1.294-0.921c0.04-0.027,0.081-0.054,0.122-0.081   c0.47-0.311,0.957-0.615,1.461-0.911c0.026-0.015,0.051-0.03,0.077-0.045c1.081-0.63,2.237-1.222,3.453-1.765   c1.376-0.619,2.823-1.179,4.329-1.677c0.005-0.002,0.011-0.003,0.016-0.005c0.743-0.246,1.502-0.476,2.273-0.691   c0.014-0.004,0.029-0.008,0.043-0.012c3.909-1.087,8.154-1.782,12.558-2.044c1.87-0.11,3.601-1.11,4.641-2.67   c1.029-1.561,1.279-3.54,0.66-5.311c-0.24-0.7-0.37-1.439-0.37-2.2c0.01-1.81,0.64-3.51,1.97-5.33   c2.235-3.069,6.524-5.968,11.765-7.986c0.465-0.181,0.947-0.344,1.425-0.512c0.295-0.103,0.582-0.215,0.882-0.313   c0.421-0.138,0.856-0.259,1.285-0.387c0.366-0.109,0.726-0.226,1.099-0.327c0.384-0.105,0.78-0.193,1.17-0.29   c0.43-0.107,0.855-0.22,1.292-0.317c0.36-0.08,0.73-0.144,1.094-0.217c0.478-0.096,0.951-0.198,1.436-0.282   c0.375-0.065,0.759-0.114,1.138-0.172c0.483-0.074,0.962-0.155,1.451-0.218c0.46-0.059,0.929-0.1,1.394-0.148   c0.417-0.044,0.83-0.097,1.251-0.132c0.692-0.058,1.393-0.096,2.094-0.132c0.2-0.01,0.398-0.029,0.599-0.038   c0.909-0.038,1.824-0.057,2.745-0.057h0.02c4.58,0,8.96,0.47,13.03,1.39c0.385,0.085,0.778,0.131,1.172,0.139   c1.176,0.026,2.36-0.289,3.358-0.92c7.644-4.846,18.403-8.115,29.833-9.201c0.222-0.021,0.444-0.04,0.666-0.059   c0.546-0.048,1.094-0.088,1.642-0.126c0.48-0.032,0.96-0.061,1.442-0.086c0.299-0.016,0.599-0.029,0.898-0.042   c0.672-0.027,1.345-0.049,2.021-0.061c0.549-0.01,1.098-0.026,1.648-0.026h0.28c12.852,0,25.408,2.818,34.719,7.658   C398.734,375.573,399.267,375.864,399.788,376.16z"/><path d="M290.229,468.29c-0.56,0-1.12,0.08-1.66,0.24h-0.01c-1.529,0.439-2.81,1.449-3.58,2.85c-0.779,1.4-0.96,3.02-0.52,4.57   c0.729,2.55,3.1,4.34,5.76,4.34c0.561,0,1.12-0.08,1.66-0.23c3.18-0.91,5.02-4.24,4.11-7.42   C295.26,470.08,292.89,468.29,290.229,468.29z"/><path d="M409.359,127.82c0-1.6-0.619-3.11-1.75-4.25c-1.13-1.13-2.63-1.76-4.239-1.76h-0.011c-2.677,0-4.951,1.764-5.721,4.191   c-0.534-0.153-1.09-0.241-1.659-0.241c-1.39,0-2.75,0.49-3.83,1.39c-1.229,1.02-1.989,2.46-2.14,4.06   c-0.15,1.59,0.33,3.15,1.36,4.38c17.729,21.39,30.819,45.63,38.87,72.06c0.779,2.54,3.079,4.25,5.739,4.25   c0.59,0,1.181-0.09,1.75-0.26c2.53-0.77,4.24-3.06,4.25-5.7c0-0.61-0.08-1.2-0.26-1.78v-0.01c-4.25-13.95-9.93-27.53-16.89-40.38   c-5.721-10.567-12.352-20.693-19.74-30.218C407.551,132.807,409.351,130.518,409.359,127.82z"/><path d="M319.77,67.26c0.67,0,1.33-0.11,1.96-0.33c1.12,0.92,2.5,1.4,3.99,1.35c3.3-0.11,5.91-2.88,5.8-6.19v-0.01l-0.47-14.63   l6.26,6.48c1.13,1.16,2.7,1.83,4.32,1.83h14.72c1.72,0.06,3.351-0.59,4.54-1.82c0.01-0.01,0.01-0.01,0.01-0.01l6.261-6.47   l-0.75,23.26c-0.091,2.86,1.859,5.4,4.649,6.04c0.44,0.1,0.891,0.16,1.351,0.16c2.35,0,4.489-1.39,5.46-3.52   c0.01-0.01,0.01-0.01,0.01-0.02c0.03-0.09,4.3-9.38,14.72-18.61c13.71-12.1,31.03-18.37,51.46-18.63c3.3-0.04,5.96-2.76,5.92-6.07   c-0.029-3.27-2.72-5.93-5.989-5.93h-0.08c-29.63,0.31-48.9,12.23-59.851,22.17c-1.729,1.57-3.42,3.24-5.02,4.95l0.609-18.96   c0.08-2.5-1.359-4.75-3.659-5.72c-2.24-0.95-4.971-0.39-6.65,1.35l-15.3,15.83h-9.87l-15.3-15.83c-1.69-1.74-4.42-2.3-6.65-1.35   c-2.31,0.97-3.74,3.22-3.66,5.71l0.73,22.99c-1.141,0.09-2.221,0.5-3.141,1.2c-1.279,0.96-2.1,2.37-2.33,3.96   c-0.22,1.58,0.19,3.16,1.16,4.44C316.13,66.39,317.87,67.26,319.77,67.26z"/><path d="M346.899,177.74c0.71,0.29,1.471,0.44,2.23,0.44c2.439,0,4.62-1.46,5.55-3.71c0,0,0-0.01,0.01-0.02   c0-0.01,0.011-0.03,0.011-0.04c7.6-18.79,18.22-31.28,31.58-37.1c2.189-0.95,3.609-3.1,3.619-5.49c0-0.82-0.159-1.63-0.489-2.4   c-0.95-2.2-3.12-3.63-5.511-3.63c-0.819,0-1.619,0.17-2.38,0.5c-6.029,2.57-11.7,6.33-16.87,11.17   c-5.89,5.5-11.109,12.42-15.529,20.56c-6.59-12.13-14.82-21.39-24.45-27.51c-11.3-7.19-22.36-8.71-29.65-8.71h-0.05   c-1.04,0.01-2.08,0.04-3.11,0.1c0.16-1.86,0.24-3.67,0.24-5.39c0.01-6.28-1.09-11.8-3.24-16.41   c-2.81-6.11-7.829-10.93-14.109-13.57c-4.67-1.99-9.9-2.96-15.99-2.97c-3.19,0-6.43,0.28-9.63,0.82c-1.58,0.27-2.96,1.14-3.88,2.45   c-0.93,1.3-1.29,2.9-1.02,4.48c0.49,2.89,2.98,4.99,5.91,4.99c0.33,0,0.68-0.03,1.01-0.09c1.42-0.24,4.28-0.65,7.58-0.65h0.221   c5.77,0,10.949,1.37,14.239,3.76c2.11,1.53,3.641,3.39,4.79,5.85c1.41,3.01,2.12,6.83,2.12,11.34c0,3.38-0.399,7.2-1.2,11.34   c-0.39,2.04,0.32,4.18,1.86,5.58c1.521,1.38,3.72,1.89,5.69,1.32c0.01,0,0.01,0,0.02,0c0.03-0.01,3.39-0.94,8.47-0.94h0.03   c8.32,0,16.14,2.3,23.25,6.83c10.45,6.67,18.96,18,25.3,33.67C344.12,175.87,345.35,177.12,346.899,177.74z"/><path d="M463,37.54c0.31,0.05,0.609,0.07,0.92,0.07c2.93,0,5.479-2.19,5.92-5.09c0.5-3.27-1.75-6.34-5.021-6.84   c-0.3-0.05-0.609-0.07-0.92-0.07c-2.93,0-5.479,2.19-5.92,5.09C457.479,33.97,459.729,37.04,463,37.54z"/><path d="M443.359,61.33c-1.659,4.07-2.489,8.43-2.46,12.96c0,2.99,0.351,6.13,1.04,9.33c-0.83-0.04-1.67-0.06-2.489-0.06   c-8.74,0.03-15.74,2-21.41,6c-3.721,2.65-6.73,6.29-8.7,10.54c-2.16,4.62-3.25,10.14-3.24,16.42c0,1,0.021,2.01,0.08,3.01   c0.16,3.19,2.79,5.69,5.98,5.69c0.1,0,0.21-0.01,0.31-0.01c1.6-0.08,3.08-0.78,4.15-1.97c1.069-1.19,1.62-2.73,1.54-4.33   c-0.04-0.8-0.061-1.6-0.061-2.39c0-4.52,0.71-8.33,2.11-11.35c1.71-3.58,4.17-5.93,7.97-7.61c2.99-1.29,6.95-2,11.16-2h0.14   c2.79,0,5.261,0.29,6.851,0.53c0.88,0.14,1.569,0.27,2,0.36c0.229,0.05,0.399,0.09,0.5,0.11l0.1,0.02c2.16,0.55,4.5-0.18,5.97-1.85   c1.49-1.7,1.91-4.06,1.08-6.16c-2.05-5.2-3.09-10.01-3.09-14.28c0.05-5.95,1.82-10.55,5.76-14.91   c4.471-4.93,12.46-9.19,21.92-11.69c4-1.07,7.551-1.69,9.82-2.01c1-0.14,1.98-0.26,2.92-0.36c0.34-0.03,0.59-0.05,0.75-0.07   c0.101,0,0.15-0.01,0.181-0.01c0.01,0,0.02,0,0.02,0c2.84-0.19,5.18-2.36,5.56-5.18c0.391-2.82-1.289-5.54-3.97-6.48   c-3.62-1.26-7.25-2.41-10.78-3.42c-0.539-0.15-1.1-0.23-1.649-0.23c-2.66,0-5.03,1.79-5.771,4.35   c-0.149,0.54-0.229,1.09-0.229,1.65c0,0.06,0,0.12,0,0.18c-3.24,0.88-6.37,1.92-9.29,3.1c-7.74,3.15-13.73,7.09-18.311,12.04   C447.06,54.22,444.88,57.61,443.359,61.33z"/><path d="M251.3,79.6c0.05,0,0.09,0,0.13,0c1.6-0.03,3.1-0.69,4.21-1.85c1.11-1.15,1.7-2.67,1.66-4.28   c-0.03-1.58-0.67-3.05-1.8-4.16c-1.16-1.13-2.71-1.74-4.32-1.71c-1.6,0.04-3.1,0.69-4.21,1.85c-1.11,1.16-1.7,2.68-1.66,4.28   c0.03,1.58,0.67,3.06,1.8,4.16C248.24,78.99,249.73,79.6,251.3,79.6z"/><path d="M471.819,393.75c-2.71,0-5.09,1.83-5.789,4.45c-0.421,1.55-0.211,3.159,0.59,4.55c0.81,1.39,2.1,2.38,3.649,2.8   c0.511,0.13,1.03,0.2,1.561,0.2c2.7,0,5.08-1.83,5.79-4.44c0.85-3.2-1.051-6.5-4.25-7.35   C472.859,393.819,472.34,393.75,471.819,393.75z"/><path d="M493.55,404.28c-1.11-1.011-2.55-1.57-4.05-1.57c-1.681,0-3.3,0.71-4.431,1.95c-1.01,1.109-1.569,2.54-1.569,4.029   c-0.01,1.69,0.7,3.311,1.95,4.45c0,0,0,0.01,0.01,0.01c2.85,2.641,4.3,5.351,4.31,8.04c-0.01,1.91-0.68,3.7-2.09,5.63   c-2.37,3.23-6.899,6.29-12.42,8.41c-6.18,2.391-13.44,3.65-21,3.65h-83.44c-3.31,0-6,2.689-6,6c0,3.31,2.69,6,6,6h83.41   c6.101-0.01,12.011-0.69,17.551-2.03c5.449-1.319,10.42-3.24,14.76-5.71c4.54-2.59,8.17-5.68,10.76-9.16   c2.93-3.91,4.47-8.33,4.47-12.79C501.77,415.09,498.85,409.09,493.55,404.28z"/><path d="M177.63,234.53c2.72,0,5.4,0.43,7.96,1.26c0.6,0.19,1.23,0.29,1.85,0.29c2.61,0,4.9-1.66,5.71-4.14   c0.2-0.61,0.3-1.23,0.3-1.86c0-2.61-1.67-4.9-4.15-5.7c-3.76-1.23-7.68-1.84-11.66-1.84h-0.03c-5.1,0-10.05,1-14.72,2.97   c-4.52,1.91-8.57,4.64-12.03,8.1c-3.47,3.47-6.19,7.52-8.1,12.04c-1.98,4.67-2.98,9.63-2.97,14.73c0,10.1,3.93,19.58,11.08,26.72   c7.14,7.13,16.64,11.061,26.76,11.061c10.09,0,19.58-3.931,26.71-11.07c7.14-7.13,11.07-16.62,11.07-26.71v-0.021   c0-3.3-2.69-5.99-6-5.99s-6,2.69-6,6c0,0,0,0.01,0.01,0.02c-0.03,14.18-11.6,25.75-25.79,25.771   c-14.23-0.021-25.82-11.591-25.85-25.78C151.79,246.13,163.38,234.54,177.63,234.53z"/><path d="M203.35,247.66c1.27,0,2.49-0.4,3.52-1.15c2.68-1.94,3.28-5.7,1.33-8.38c-1.13-1.55-2.94-2.47-4.86-2.47   c-1.27,0-2.49,0.39-3.52,1.14c-1.3,0.95-2.15,2.34-2.4,3.92s0.13,3.17,1.07,4.46C199.62,246.73,201.43,247.66,203.35,247.66z"/><path d="M307.72,239.9c-5.47,0.01-10.6,2.14-14.45,6.02c-3.85,3.87-5.97,9-5.97,14.46c0.01,5.46,2.14,10.58,5.99,14.43   c3.85,3.851,8.97,5.971,14.43,5.98c5.46-0.01,10.58-2.13,14.43-5.98c3.851-3.85,5.971-8.97,5.98-14.43   c-0.01-5.46-2.13-10.6-5.97-14.46C318.31,242.04,313.18,239.91,307.72,239.9z M307.72,268.79c-4.64,0-8.41-3.78-8.42-8.41   c0.01-4.67,3.79-8.47,8.42-8.48c4.64,0.01,8.41,3.81,8.41,8.48C316.13,265.09,312.43,268.78,307.72,268.79z"/><path d="M229.83,162.19c-0.01-5.46-2.14-10.58-5.99-14.43s-8.97-5.98-14.42-5.99c-5.46,0.01-10.59,2.14-14.44,5.99   c-3.85,3.85-5.97,8.97-5.98,14.43c0.01,5.46,2.13,10.58,5.98,14.43c3.85,3.85,8.98,5.97,14.44,5.98   c5.45-0.01,10.57-2.13,14.42-5.98C227.69,172.77,229.82,167.65,229.83,162.19z M209.42,170.6c-4.72,0-8.41-3.7-8.42-8.41   c0.01-4.71,3.7-8.41,8.42-8.42c4.63,0.01,8.41,3.78,8.41,8.42C217.83,166.83,214.05,170.6,209.42,170.6z"/></g><text x="10.969" y="503.569" fill="#000000" font-size="5px" font-weight="bold" font-family="'Helvetica Neue', Helvetica, Arial-Unicode, Arial, Sans-serif">Created by ibrandify</text><text x="10.969" y="508.569" fill="#000000" font-size="5px" font-weight="bold" font-family="'Helvetica Neue', Helvetica, Arial-Unicode, Arial, Sans-serif">from the Noun Project</text></svg>