<svg xmlns="http://www.w3.org/2000/svg" xmlns:xlink="http://www.w3.org/1999/xlink" version="1.1" x="0px" y="0px" viewBox="0 0 95 118.75" enable-background="new 0 0 95 95" xml:space="preserve"><path d="M70.27,58.037c-0.565-2.145-1.414-4.196-2.521-6.095c-0.496-0.849-1.062-1.691-1.681-2.502  c-1.341-1.759-2.909-3.327-4.662-4.66c-0.799-0.61-1.639-1.174-2.496-1.677c-1.897-1.106-3.948-1.954-6.095-2.52  c-0.97-0.256-1.964-0.454-2.955-0.588c-2.524-0.339-4.113-0.335-6.592,0.002c-0.989,0.132-1.982,0.33-2.952,0.586  c-2.149,0.565-4.199,1.413-6.095,2.52c-0.855,0.5-1.698,1.064-2.504,1.679c-1.748,1.333-3.315,2.899-4.658,4.658  c-0.617,0.813-1.181,1.655-1.677,2.501c-1.104,1.888-1.952,3.939-2.52,6.095c-0.253,0.951-0.451,1.945-0.591,2.957  c-0.166,1.259-0.244,2.306-0.244,3.293c0,0.989,0.078,2.035,0.244,3.293c0.014,0.098,0.031,0.195,0.048,0.292l0.075,0.461  l0.256-0.051c0.348-0.069,0.7-0.133,1.052-0.198l0.671-0.123l-0.037-0.24c-0.173-1.127-0.261-2.283-0.261-3.435  c0-12.401,10.089-22.491,22.49-22.491s22.49,10.089,22.49,22.491c0,1.109-0.084,2.233-0.248,3.339l-0.036,0.24l0.589,0.105  c0.38,0.068,0.76,0.136,1.135,0.209l0.256,0.05l0.067-0.422c0.014-0.074,0.026-0.148,0.037-0.224  c0.169-1.247,0.248-2.294,0.248-3.298c0-1.002-0.079-2.05-0.248-3.297C70.726,60.019,70.528,59.026,70.27,58.037z M70.359,67.517  c-0.005,0.042-0.012,0.083-0.02,0.124c-0.296-0.056-0.594-0.109-0.892-0.163l-0.111-0.02c0.146-1.052,0.219-2.118,0.219-3.172  c0-12.677-10.313-22.991-22.99-22.991s-22.99,10.313-22.99,22.991c0,1.096,0.078,2.195,0.231,3.271l-0.193,0.035  c-0.271,0.049-0.541,0.099-0.809,0.15c-0.014-0.076-0.027-0.152-0.037-0.229c-0.164-1.235-0.24-2.26-0.24-3.227  c0-0.965,0.076-1.99,0.24-3.226c0.136-0.99,0.33-1.964,0.578-2.896c0.557-2.112,1.387-4.121,2.468-5.97  c0.485-0.829,1.038-1.654,1.643-2.451c1.315-1.723,2.851-3.258,4.563-4.563c0.79-0.602,1.615-1.155,2.453-1.645  c1.856-1.084,3.865-1.915,5.971-2.468c0.949-0.251,1.922-0.445,2.892-0.574c1.224-0.167,2.25-0.244,3.23-0.244  c0.97,0,1.995,0.077,3.228,0.242c0.971,0.132,1.944,0.326,2.895,0.577c2.103,0.554,4.111,1.385,5.969,2.468  c0.84,0.493,1.663,1.045,2.446,1.644c1.717,1.306,3.253,2.841,4.567,4.565c0.606,0.795,1.16,1.62,1.646,2.451  c1.085,1.86,1.915,3.869,2.469,5.97c0.255,0.969,0.447,1.942,0.574,2.892c0.167,1.225,0.244,2.252,0.244,3.23  C70.604,65.267,70.526,66.293,70.359,67.517z"/><path d="M75.713,68.816l13.42-4.53l-15.784-5.328L85.89,47.996l-16.614,1.117l7.39-14.926l-14.931,7.391l1.12-16.616L51.894,37.5  l-5.328-15.781l-5.328,15.783L30.271,24.96l1.117,16.616l-14.923-7.389l7.389,14.926L7.237,47.996L19.774,58.96L3.998,64.286  l13.646,4.608c-5.672,1.407-10.882,3.202-15.498,5.338L2.002,74.3v1.602l0.356-0.167c5.262-2.467,11.294-4.468,17.931-5.946  c0.833-0.186,1.674-0.365,2.524-0.533c0.446-0.088,0.898-0.171,1.351-0.254l0.143-0.026c7.228-1.329,14.806-2.002,22.523-2.002  c7.531,0,14.938,0.642,22.05,1.915c0.486,0.087,0.973,0.175,1.454,0.268c0.892,0.172,1.774,0.354,2.647,0.545  c6.51,1.424,12.453,3.352,17.667,5.729l0.354,0.161v-1.6l-0.147-0.066C86.323,71.884,81.233,70.167,75.713,68.816z M90.502,74.814  c-5.16-2.318-11.016-4.203-17.413-5.602c-0.877-0.192-1.764-0.375-2.66-0.548c-0.482-0.093-0.972-0.181-1.499-0.276  c-7.104-1.271-14.539-1.916-22.1-1.916c-7.748,0-15.356,0.676-22.613,2.01l-0.144,0.026c-0.453,0.083-0.908,0.167-1.357,0.256  c-0.854,0.169-1.699,0.349-2.536,0.535c-6.522,1.454-12.468,3.41-17.678,5.816V74.62c4.777-2.198,10.191-4.029,16.098-5.443  l0.844-0.202L5.561,64.286l15.198-5.131L8.681,48.594l16.008,1.076l-7.117-14.378l14.374,7.118l-1.076-16.006l10.563,12.082  l5.133-15.203l5.133,15.201l10.559-12.077l-1.079,16.005l14.382-7.12L68.441,49.67l16.005-1.076L72.364,59.153l15.206,5.133  l-13.667,4.613l0.851,0.201c5.755,1.359,11.052,3.113,15.748,5.214V74.814z"/><text x="0" y="110" fill="#000000" font-size="5px" font-weight="bold" font-family="'Helvetica Neue', Helvetica, Arial-Unicode, Arial, Sans-serif">Created by Guilherme Furtado</text><text x="0" y="115" fill="#000000" font-size="5px" font-weight="bold" font-family="'Helvetica Neue', Helvetica, Arial-Unicode, Arial, Sans-serif">from the Noun Project</text></svg>