<svg width="32" height="32" viewBox="0 0 32 32" fill="none" xmlns="http://www.w3.org/2000/svg">
<g clip-path="url(#clip0)">
<path d="M3.33334 18.1334C2.96515 18.1334 2.66667 17.8946 2.66667 17.6C2.66667 17.3055 2.96515 17.0667 3.33334 17.0667H27.3333C27.7015 17.0667 28 17.3055 28 17.6C28 17.8946 27.7015 18.1334 27.3333 18.1334H3.33334ZM3.33334 12.8C2.96515 12.8 2.66667 12.5612 2.66667 12.2667C2.66667 11.9721 2.96515 11.7334 3.33334 11.7334H27.3333C27.7015 11.7334 28 11.9721 28 12.2667C28 12.5612 27.7015 12.8 27.3333 12.8H3.33334ZM3.33334 7.46669C2.96515 7.46669 2.66667 7.22791 2.66667 6.93336C2.66667 6.63881 2.96515 6.40002 3.33334 6.40002H27.3333C27.7015 6.40002 28 6.63881 28 6.93336C28 7.22791 27.7015 7.46669 27.3333 7.46669H3.33334Z" fill="white"/>
</g>
<defs>
<clipPath id="clip0">
<rect width="32" height="32" fill="white"/>
</clipPath>
</defs>
</svg>
